<svg width="978" height="540" viewBox="0 0 978 540" fill="none" xmlns="http://www.w3.org/2000/svg">
<path fill-rule="evenodd" clip-rule="evenodd" d="M422.816 21.7594L380.032 0L315.038 92.9454L275.263 72.7168C202.894 35.9112 122.015 104.618 146.636 181.986C150.349 193.655 145.881 206.372 135.686 213.155L60.2317 263.349C-25.781 320.568 -18.2752 449.252 73.8063 496.082L159.437 539.632L251.468 358.674C263.638 364.976 277.457 368.536 292.108 368.536C340.985 368.536 380.608 328.914 380.608 280.036C380.608 245.4 360.71 215.41 331.721 200.875L371.904 121.866L371.638 121.731L422.816 21.7594ZM331.721 200.875L251.468 358.674C223.037 343.951 203.608 314.263 203.608 280.036C203.608 231.159 243.231 191.536 292.108 191.536C306.348 191.536 319.803 194.9 331.721 200.875ZM371.638 121.731L371.5 122L315 93L315.038 92.9454L371.638 121.731ZM394.757 193.273C387.739 200.211 384.23 210.818 384.23 225.096C384.23 238.568 388.143 249.216 395.967 257.04C399.92 260.993 404.639 263.857 410.124 265.631C415.69 267.325 422.91 268.172 431.783 268.172L444.004 268.051C458.686 267.729 471.834 267.567 483.45 267.567V226.185H446.424V259.702C440.132 259.702 435.494 255.79 432.509 247.965C430.251 241.835 429.121 234.212 429.121 225.096C429.121 219.53 429.605 214.327 430.573 209.487C431.622 204.002 433.356 199.606 435.776 196.298C438.6 192.507 442.149 190.611 446.424 190.611C451.022 190.611 454.814 192.023 457.798 194.846C460.783 197.589 462.961 200.896 464.332 204.768C465.784 208.56 466.672 212.27 466.994 215.9H473.891C473.649 211.625 472.722 207.269 471.108 202.832C469.576 198.315 467.438 194.483 464.695 191.337C461.388 187.546 457.153 185.086 451.99 183.956C446.908 182.746 440.173 182.141 431.783 182.141C422.749 182.141 415.448 182.867 409.882 184.319C404.316 185.771 399.275 188.756 394.757 193.273ZM499.54 261.759C505.832 266.035 516.279 268.172 530.879 268.172C540.559 268.172 548.303 267.446 554.111 265.994C559.919 264.462 564.275 261.84 567.179 258.129C570.083 254.338 571.535 249.014 571.535 242.157V182.867H564.396V242.157C564.396 253.128 559.718 258.613 550.36 258.613C546.166 258.613 542.778 257.323 540.196 254.741C537.696 252.079 536.445 247.885 536.445 242.157V182.867H490.223V242.157C490.223 250.95 493.329 257.484 499.54 261.759ZM617.702 182.867H578.256V267.567H617.702V182.867ZM623.729 190.006H655.552V267.567H697.902V190.006H729.846V182.867H623.729V190.006ZM776.902 182.867H741.57L709.626 267.567H718.459L729.349 239.495H755.969L768.674 267.567H814.412L776.902 182.867ZM741.57 207.551L752.581 232.114H732.011L741.57 207.551ZM900.141 182.867H819.192V267.567H859.364V228.726L862.631 228.847C864.487 228.928 866.463 229.17 868.56 229.573C870.577 229.977 872.392 230.622 874.005 231.509C875.457 232.316 876.748 233.566 877.877 235.26C878.845 236.712 879.329 238.729 879.329 241.31V267.567H919.864V245.666C919.864 241.391 918.453 237.559 915.629 234.171C912.887 230.783 909.337 228.484 904.981 227.274C909.902 226.064 913.976 223.322 917.202 219.046C920.429 214.771 922.042 210.012 922.042 204.768C922.042 200.816 921.034 197.186 919.017 193.878C917.081 190.49 914.419 187.828 911.031 185.892C907.724 183.876 904.094 182.867 900.141 182.867ZM871.585 219.651C869.165 221.023 866.503 221.708 863.599 221.708L859.364 221.829V189.764H863.599C866.503 189.764 869.165 190.49 871.585 191.942C874.086 193.394 876.022 195.371 877.393 197.871C878.845 200.291 879.571 202.953 879.571 205.857C879.571 208.681 878.845 211.343 877.393 213.843C876.022 216.263 874.086 218.199 871.585 219.651ZM423.313 326.867H382.173L419.683 411.567H452.837L467.841 371.879L485.386 411.567H522.049L553.993 326.867H544.676L521.444 389.424L493.614 326.867H475.464L451.627 390.876L423.313 326.867ZM574.997 407.211C583.709 410.519 593.47 412.172 604.279 412.172C615.008 412.172 624.688 410.519 633.319 407.211C642.031 403.904 648.888 399.024 653.889 392.57C658.971 386.036 661.512 378.212 661.512 369.096C661.512 360.062 658.971 352.318 653.889 345.864C648.888 339.411 642.031 334.531 633.319 331.223C624.688 327.835 615.008 326.141 604.279 326.141C593.47 326.141 583.709 327.835 574.997 331.223C566.366 334.531 559.509 339.411 554.427 345.864C549.345 352.318 546.804 360.062 546.804 369.096C546.804 378.212 549.305 386.036 554.306 392.57C559.388 399.024 566.285 403.904 574.997 407.211ZM611.781 400.435C610.168 403.501 607.667 405.033 604.279 405.033C600.811 405.033 598.229 403.501 596.535 400.435C595.083 397.693 594.196 393.538 593.873 387.972C593.631 385.875 593.51 379.583 593.51 369.096C593.51 359.82 593.672 353.084 593.994 348.889C594.398 343.969 595.285 340.298 596.656 337.878C598.35 334.813 600.891 333.28 604.279 333.28C607.587 333.28 610.047 334.813 611.66 337.878C613.193 340.379 614.08 344.049 614.322 348.889C614.726 352.842 614.927 359.578 614.927 369.096C614.927 378.534 614.806 384.826 614.564 387.972C614.08 393.942 613.153 398.096 611.781 400.435ZM748.419 326.867H667.47V411.567H707.642V372.726L710.909 372.847C712.764 372.928 714.74 373.17 716.838 373.573C718.854 373.977 720.669 374.622 722.283 375.509C723.735 376.316 725.025 377.566 726.155 379.26C727.123 380.712 727.607 382.729 727.607 385.31V411.567H768.142V389.666C768.142 385.391 766.73 381.559 763.907 378.171C761.164 374.783 757.615 372.484 753.259 371.274C758.179 370.064 762.253 367.322 765.48 363.046C768.706 358.771 770.32 354.012 770.32 348.768C770.32 344.816 769.311 341.186 767.295 337.878C765.359 334.49 762.697 331.828 759.309 329.892C756.001 327.876 752.371 326.867 748.419 326.867ZM719.863 363.651C717.443 365.023 714.781 365.708 711.877 365.708L707.642 365.829V333.764H711.877C714.781 333.764 717.443 334.49 719.863 335.942C722.363 337.394 724.299 339.371 725.671 341.871C727.123 344.291 727.849 346.953 727.849 349.857C727.849 352.681 727.123 355.343 725.671 357.843C724.299 360.263 722.363 362.199 719.863 363.651ZM818.888 326.867H776.417V411.567H864.868V404.307H818.888V326.867ZM935.421 326.867H871.775V411.567H935.421C947.037 411.567 957 407.453 965.308 399.225C973.617 390.917 977.771 380.874 977.771 369.096C977.771 357.48 973.617 347.518 965.308 339.209C956.919 330.981 946.957 326.867 935.421 326.867ZM931.307 400.072C929.291 403.057 925.983 404.549 921.385 404.549H914.125V333.885H921.385C925.903 333.885 929.17 335.378 931.186 338.362C933.122 340.863 934.332 344.493 934.816 349.252C935.3 355.544 935.542 362.159 935.542 369.096C935.542 378.05 935.341 384.262 934.937 387.73C934.453 393.054 933.243 397.168 931.307 400.072Z" fill="white"/>
</svg>
